Coordinates
version=1
nRows=26
nColumns=24
inDegrees=yes

Units are S.I. units (second, meters, Newtons, ...)
Angles are in degrees.

endheader
time	pelvis_tilt	pelvis_list	pelvis_rotation	pelvis_tx	pelvis_ty	pelvis_tz	hip_flexion_r	hip_adduction_r	hip_rotation_r	knee_angle_r	ankle_angle_r	subtalar_angle_r	mtp_angle_r	hip_flexion_l	hip_adduction_l	hip_rotation_l	knee_angle_l	ankle_angle_l	subtalar_angle_l	mtp_angle_l	lumbar_extension	lumbar_bending	lumbar_rotation
      0.50000000	      4.76281529	      0.40342044	     -0.00047712	      0.58952689	      1.03324624	     -0.02136294	     19.18693645	     -4.91109893	    -13.07686087	    -19.85408256	      1.70327087	      5.04338320	      0.00000000	    -14.47826053	      3.14935317	     -7.64361252	     -2.47813691	      9.08648225	     15.12476241	      0.00000000	    -20.04376034	     -2.39992450	     -5.60308425
      0.51666667	      4.58320135	      0.96367961	      0.10151630	      0.58817684	      1.02967655	     -0.02054184	     18.76601991	     -4.82877586	    -12.60474239	    -13.62311761	      1.37550884	      5.04338450	      0.00000000	    -15.67488948	      3.66997713	     -7.36641109	     -1.95540596	      9.57639618	     15.12476253	      0.00000000	    -19.90447438	     -2.86503120	     -5.80708990
      0.53333333	      4.40079277	      1.52841105	      0.41660312	      0.58712312	      1.02575370	     -0.01998646	     18.33081981	     -4.89834551	    -11.75274441	     -8.05190510	      1.37144403	      5.04338567	      0.00000000	    -16.78199391	      4.10540714	     -6.83006829	     -1.65260888	     10.16695386	     15.12476259	      0.00000000	    -19.72402069	     -3.25904030	     -5.96525964
      0.55000000	      4.30212770	      2.11288523	      0.31638037	      0.58664097	      1.02176159	     -0.01904351	     17.93268047	     -5.01514343	    -10.22359767	     -3.43318367	      1.60485816	      5.04338666	      0.00000000	    -18.05839890	      4.66985568	     -6.65944161	     -1.27636678	     10.65215867	     15.12476273	      0.00000000	    -19.59218682	     -3.67464543	     -6.02730564
      0.56666667	      4.20045673	      2.57468385	      0.31954611	      0.58574068	      1.01782230	     -0.01831029	     17.89830087	     -5.21650442	     -8.79386772	     -0.46903632	      2.11041801	      5.04338705	      0.00000000	    -19.09208325	      5.04122306	     -6.33443486	     -1.35246611	     11.28888850	     15.12476281	      0.00000000	    -19.49080233	     -3.92488903	     -5.89134739
      0.58333333	      4.05768996	      2.86495540	      0.98161725	      0.58413842	      1.01434807	     -0.01806614	     18.05693439	     -5.51852265	     -8.42722159	      1.00748759	      2.44038943	      5.04338744	      0.00000000	    -19.65431938	      4.94344420	     -5.43268981	     -2.21083710	     12.19274037	     15.12476307	      0.00000000	    -19.60774013	     -3.74017904	     -6.31768668
      0.60000000	      4.06334011	      2.87236478	      1.02149882	      0.58481038	      1.01163609	     -0.01615576	     18.28551005	     -5.34206535	     -7.88976606	      0.90639178	      2.64597063	      5.04338733	      0.00000000	    -20.59013848	      4.68102154	     -5.20525207	     -2.85764118	     12.77406213	     15.12476319	      0.00000000	    -19.48088416	     -3.51639731	     -6.10809053
      0.61666667	      3.97481209	      2.60712748	      1.30618601	      0.58541893	      1.00930053	     -0.01374619	     18.91779529	     -4.97475228	     -7.96090160	     -0.79062687	      2.37710844	      5.04338683	      0.00000000	    -21.08533376	      3.97609265	     -4.86691253	     -4.12607548	     13.51845061	     15.12476355	      0.00000000	    -19.38469036	     -2.97414594	     -6.12596145
      0.63333333	      3.94557096	      2.55136307	      1.84691585	      0.58637873	      1.00775390	     -0.01132037	     19.59870194	     -4.94362957	     -8.32975854	     -3.50740749	      1.72225687	      5.04338618	      0.00000000	    -21.44789435	      3.34887084	     -4.17668258	     -5.73840606	     14.02354546	     15.12476388	      0.00000000	    -19.36403705	     -2.59603539	     -6.40319473
      0.65000000	      3.81387722	      2.37625943	      2.34522223	      0.58787211	      1.00646471	     -0.00829090	     20.39608596	     -4.80126904	     -8.80759798	     -6.68711240	      0.70783355	      5.04338548	      0.00000000	    -21.57746054	      2.59083174	     -3.50808089	     -7.58872310	     14.36039676	     15.12476432	      0.00000000	    -19.12509287	     -2.16788126	     -6.77660238
      0.66666667	      3.68864755	      2.29115967	      2.74903102	      0.58982623	      1.00588335	     -0.00574216	     21.06104747	     -4.80114610	     -9.11539953	     -9.85254225	     -0.39671428	      5.04338484	      0.00000000	    -21.51168837	      2.01205075	     -2.82810922	     -9.83399922	     14.36490854	     15.12476459	      0.00000000	    -18.85856673	     -1.63692367	     -6.92028723
      0.68333333	      3.76809046	      2.21552634	      2.88708952	      0.59150289	      1.00603248	     -0.00287330	     21.66324254	     -4.76627719	     -9.07995483	    -13.41070107	     -0.99405982	      5.04338431	      0.00000000	    -21.30446900	      1.53482164	     -2.37781243	    -12.71723420	     14.05602905	     15.12476498	      0.00000000	    -18.75961857	     -1.14203650	     -6.79225297
      0.70000000	      4.05110735	      1.89811003	      3.20748296	      0.59488192	      1.00727602	     -0.00039416	     21.69052821	     -4.54775926	     -9.18187115	    -16.67638032	     -1.01863128	      5.04338379	      0.00000000	    -21.02331875	      0.73725965	     -1.90632373	    -16.18997070	     13.24569459	     15.12476538	      0.00000000	    -18.88521335	     -0.39958732	     -6.86001367
      0.71666667	      4.33351173	      1.57412931	      3.45277164	      0.59791207	      1.00899881	      0.00215243	     21.24353286	     -4.25534934	     -9.26451521	    -19.02653414	     -0.89339232	      5.04338346	      0.00000000	    -20.11922696	     -0.05254594	     -1.69174913	    -20.66660503	     11.95311941	     15.12476598	      0.00000000	    -18.88425027	      0.46428072	     -6.94617757
      0.73333333	      4.43745649	      1.35837451	      3.64199716	      0.60013502	      1.01046189	      0.00539509	     20.90352937	     -4.01718844	     -9.34907629	    -21.17307496	     -0.42177562	      5.04338340	      0.00000000	    -18.09808548	     -0.78870308	     -1.79354232	    -26.62853954	     10.14112697	     15.12476651	      0.00000000	    -18.76981764	      0.98722707	     -6.78391549
      0.75000000	      4.55827627	      0.96542099	      3.74465480	      0.60280703	      1.01233495	      0.00873575	     20.06744664	     -3.51069098	     -9.59407816	    -22.47239012	      0.25339315	      5.04338376	      0.00000000	    -15.73168117	     -1.80992636	     -2.47490833	    -32.89199728	      7.27889852	     15.12476674	      0.00000000	    -18.62968844	      1.65852606	     -6.94594132
      0.76666667	      4.53347211	      0.49011146	      3.86861295	      0.60480745	      1.01404281	      0.01198585	     19.22567574	     -2.87490227	     -9.85047599	    -23.41523846	      1.24266662	      5.04338394	      0.00000000	    -12.68475621	     -3.14789383	     -3.60856326	    -39.56983384	      3.56823310	     15.12476647	      0.00000000	    -18.42000828	      2.38304804	     -6.56098437
      0.78333333	      4.55785705	     -0.22762092	      3.96333761	      0.60551775	      1.01580940	      0.01579136	     18.07414563	     -1.86447469	    -10.19522419	    -23.63510880	      2.14629532	      5.04338418	      0.00000000	     -9.47840221	     -4.97512033	     -4.94786344	    -45.97090509	     -0.37575219	     15.12476480	      0.00000000	    -18.33329228	      3.21380562	     -6.11173891
      0.80000000	      4.68688180	     -1.13519840	      3.87661099	      0.60623926	      1.01761681	      0.01976850	     16.77152749	     -0.54410782	    -10.32919816	    -23.70943116	      3.20583004	      5.04338417	      0.00000000	     -6.44051524	     -7.14271172	     -6.41122517	    -51.80567044	     -3.74982455	     15.12476208	      0.00000000	    -18.32501298	      4.20325287	     -5.20349469
      0.81666667	      4.84801763	     -2.04962217	      3.93824481	      0.60664493	      1.02001557	      0.02380855	     15.08044074	      0.82498689	    -10.57967046	    -23.02077358	      4.01111085	      5.04338414	      0.00000000	     -3.63189889	     -9.26023035	     -7.27909524	    -56.71748820	     -5.61866674	     15.12475830	      0.00000000	    -18.22812453	      5.13507028	     -5.01529739
      0.83333333	      5.05234252	     -2.59452302	      3.94178549	      0.60659454	      1.02284852	      0.02735820	     13.34367957	      1.81282125	    -10.60672930	    -22.31289022	      4.80305126	      5.04338420	      0.00000000	     -1.02503409	    -10.75269490	     -7.79154749	    -60.83406722	     -5.84608746	     15.12475451	      0.00000000	    -18.35022313	      5.63830199	     -4.19623178
      0.85000000	      5.19662333	     -2.95753053	      3.79093528	      0.60630760	      1.02598878	      0.03070209	     11.48196097	      2.64231494	    -10.43986616	    -21.18162540	      5.35701308	      5.04338429	      0.00000000	      1.49546862	    -11.72557243	     -8.05319348	    -64.16185834	     -4.79917733	     15.12475124	      0.00000000	    -18.51746724	      5.82426602	     -3.60017287
      0.86666667	      5.42510157	     -2.99723090	      3.55309516	      0.60594423	      1.02937143	      0.03366251	      9.59140401	      3.09397605	    -10.10189523	    -20.22888969	      5.92771635	      5.04338446	      0.00000000	      3.73047928	    -12.11251152	     -8.28868564	    -66.61354596	     -3.19559732	     15.12474920	      0.00000000	    -18.68504760	      5.72282752	     -2.74022707
      0.88333333	      5.44614703	     -2.85083752	      3.40283529	      0.60493949	      1.03258033	      0.03624179	      7.75628333	      3.31197996	     -9.85951184	    -18.87343900	      6.31521492	      5.04338470	      0.00000000	      6.17318196	    -12.00564406	     -8.22185412	    -68.31243692	     -1.58562526	     15.12474814	      0.00000000	    -18.74994814	      5.40604989	     -2.33050382
      0.90000000	      5.61780909	     -2.60344983	      3.07300628	      0.60412301	      1.03576661	      0.03862523	      5.77375157	      3.41231664	     -9.38949211	    -17.57133587	      6.67136303	      5.04338483	      0.00000000	      8.23173854	    -11.57061684	     -8.20039187	    -69.16820756	     -0.22018058	     15.12474817	      0.00000000	    -19.01346996	      4.90246289	     -1.66765451
      0.91666667	      5.60560317	     -2.23986833	      2.85048218	      0.60271411	      1.03840570	      0.04048092	      4.04112450	      3.31059795	     -9.02479563	    -16.30543925	      6.97910063	      5.04338525	      0.00000000	     10.39610427	    -10.79940792	     -7.99791887	    -69.22909605	      0.83205061	     15.12474894	      0.00000000	    -19.01158677	      4.33671230	     -1.43698552
